<svg xmlns="http://www.w3.org/2000/svg" xmlns:xlink="http://www.w3.org/1999/xlink" width="2000" zoomAndPan="magnify" viewBox="0 0 1500 374.999991" height="500" preserveAspectRatio="xMidYMid meet" version="1.0"><defs><g/></defs><g fill="#191b20" fill-opacity="1"><g transform="translate(197.467855, 276.176473)"><g><path d="M 128.875 -249.21875 C 113.6875 -249.21875 99.625 -246.128906 86.6875 -239.953125 C 73.75 -233.785156 62.59375 -225.179688 53.21875 -214.140625 C 43.84375 -203.109375 36.484375 -190.113281 31.140625 -175.15625 C 25.804688 -160.207031 23.140625 -143.832031 23.140625 -126.03125 C 23.140625 -108.226562 25.925781 -91.789062 31.5 -76.71875 C 37.082031 -61.644531 44.796875 -48.585938 54.640625 -37.546875 C 64.492188 -26.515625 76.1875 -17.910156 89.71875 -11.734375 C 103.25 -5.566406 117.84375 -2.484375 133.5 -2.484375 C 142.519531 -2.484375 151.363281 -3.671875 160.03125 -6.046875 C 168.695312 -8.421875 176.882812 -12.039062 184.59375 -16.90625 C 192.3125 -21.769531 199.3125 -27.878906 205.59375 -35.234375 C 211.882812 -42.597656 217.164062 -51.144531 221.4375 -60.875 L 225 -60.875 C 220.726562 -50.90625 215.328125 -41.945312 208.796875 -34 C 202.273438 -26.050781 194.859375 -19.285156 186.546875 -13.703125 C 178.242188 -8.128906 169.222656 -3.859375 159.484375 -0.890625 C 149.753906 2.078125 139.550781 3.5625 128.875 3.5625 C 111.550781 3.5625 95.289062 0.179688 80.09375 -6.578125 C 64.90625 -13.347656 51.613281 -22.488281 40.21875 -34 C 28.832031 -45.507812 19.875 -59.035156 13.34375 -74.578125 C 6.820312 -90.128906 3.5625 -106.804688 3.5625 -124.609375 C 3.5625 -142.410156 6.820312 -159.082031 13.34375 -174.625 C 19.875 -190.164062 28.832031 -203.691406 40.21875 -215.203125 C 51.613281 -226.722656 64.90625 -235.863281 80.09375 -242.625 C 95.289062 -249.382812 111.550781 -252.765625 128.875 -252.765625 C 138.601562 -252.765625 148.15625 -251.34375 157.53125 -248.5 C 166.90625 -245.65625 175.6875 -241.679688 183.875 -236.578125 C 192.070312 -231.472656 199.429688 -225.414062 205.953125 -218.40625 C 212.484375 -211.40625 217.644531 -203.632812 221.4375 -195.09375 L 186.203125 -154.15625 L 184.765625 -155.578125 C 193.546875 -166.023438 198.410156 -176.765625 199.359375 -187.796875 C 200.316406 -198.835938 198.066406 -208.863281 192.609375 -217.875 C 187.148438 -226.894531 178.898438 -234.375 167.859375 -240.3125 C 156.828125 -246.25 143.832031 -249.21875 128.875 -249.21875 Z M 128.875 -249.21875 "/></g></g></g><g fill="#191b20" fill-opacity="1"><g transform="translate(429.586, 276.176473)"><g><path d="M 121.75 -37.03125 C 117.71875 -24.207031 110.300781 -14.234375 99.5 -7.109375 C 88.707031 0.00390625 75.710938 3.5625 60.515625 3.5625 C 52.453125 3.5625 44.914062 2.492188 37.90625 0.359375 C 30.90625 -1.773438 24.851562 -4.738281 19.75 -8.53125 C 14.65625 -12.332031 10.679688 -16.90625 7.828125 -22.25 C 4.984375 -27.59375 3.5625 -33.347656 3.5625 -39.515625 C 3.5625 -49.015625 6.46875 -56.847656 12.28125 -63.015625 C 18.09375 -69.179688 25.390625 -74.34375 34.171875 -78.5 C 42.953125 -82.65625 52.445312 -86.210938 62.65625 -89.171875 C 72.863281 -92.140625 82.359375 -95.109375 91.140625 -98.078125 C 99.921875 -101.046875 107.21875 -104.488281 113.03125 -108.40625 C 118.84375 -112.320312 121.75 -117.363281 121.75 -123.53125 L 121.75 -125.3125 C 121.75 -141.6875 117.710938 -154.5625 109.640625 -163.9375 C 101.578125 -173.320312 90.664062 -178.015625 76.90625 -178.015625 C 71.914062 -178.015625 66.925781 -177.003906 61.9375 -174.984375 C 56.957031 -172.960938 52.507812 -170.347656 48.59375 -167.140625 C 44.675781 -163.941406 41.53125 -160.207031 39.15625 -155.9375 C 36.789062 -151.664062 35.609375 -147.394531 35.609375 -143.125 C 35.609375 -139.5625 36.554688 -135.703125 38.453125 -131.546875 C 40.347656 -127.390625 43.429688 -122.820312 47.703125 -117.84375 L 46.28125 -116.421875 L 18.515625 -148.453125 C 27.765625 -159.847656 37.078125 -168.210938 46.453125 -173.546875 C 55.828125 -178.890625 66.210938 -181.5625 77.609375 -181.5625 C 96.117188 -181.5625 110.890625 -176.160156 121.921875 -165.359375 C 132.960938 -154.566406 138.484375 -139.796875 138.484375 -121.046875 L 138.484375 -32.390625 C 138.484375 -20.285156 139.96875 -12.15625 142.9375 -8 C 145.90625 -3.851562 151.539062 -1.78125 159.84375 -1.78125 L 159.84375 0 L 132.4375 0 C 125.3125 0 121.75 -3.5625 121.75 -10.6875 Z M 22.078125 -40.578125 C 22.078125 -34.890625 23.144531 -29.671875 25.28125 -24.921875 C 27.414062 -20.171875 30.441406 -16.015625 34.359375 -12.453125 C 38.273438 -8.898438 42.84375 -6.171875 48.0625 -4.265625 C 53.28125 -2.367188 59.09375 -1.421875 65.5 -1.421875 C 74.050781 -1.421875 81.765625 -2.84375 88.640625 -5.6875 C 95.523438 -8.539062 101.398438 -12.519531 106.265625 -17.625 C 111.128906 -22.726562 114.925781 -28.898438 117.65625 -36.140625 C 120.382812 -43.378906 121.75 -51.269531 121.75 -59.8125 L 121.75 -112.5 C 118.664062 -108.226562 114.097656 -104.609375 108.046875 -101.640625 C 101.992188 -98.671875 95.289062 -95.878906 87.9375 -93.265625 C 80.582031 -90.660156 72.988281 -87.992188 65.15625 -85.265625 C 57.320312 -82.535156 50.195312 -79.210938 43.78125 -75.296875 C 37.375 -71.378906 32.15625 -66.628906 28.125 -61.046875 C 24.09375 -55.472656 22.078125 -48.648438 22.078125 -40.578125 Z M 22.078125 -40.578125 "/></g></g></g><g fill="#191b20" fill-opacity="1"><g transform="translate(585.87408, 276.176473)"><g><path d="M 41.65625 -229.625 L 41.65625 -181.5625 L 89.71875 -181.5625 L 89.71875 -178.015625 L 41.65625 -178.015625 L 41.65625 -44.5 C 41.65625 -31.925781 44.382812 -21.484375 49.84375 -13.171875 C 55.300781 -4.867188 62.179688 -0.71875 70.484375 -0.71875 C 75.472656 -0.71875 80.578125 -2.378906 85.796875 -5.703125 C 91.015625 -9.023438 96 -14.363281 100.75 -21.71875 L 103.953125 -19.9375 C 93.515625 -4.03125 81.410156 3.921875 67.640625 3.921875 C 54.109375 3.921875 43.601562 -0.765625 36.125 -10.140625 C 28.65625 -19.515625 24.921875 -32.507812 24.921875 -49.125 L 24.921875 -178.015625 L 3.5625 -178.015625 L 3.5625 -181.5625 C 9.019531 -181.5625 13.820312 -182.035156 17.96875 -182.984375 C 22.125 -183.941406 25.6875 -186.140625 28.65625 -189.578125 C 31.625 -193.015625 33.878906 -197.878906 35.421875 -204.171875 C 36.960938 -210.460938 37.851562 -218.945312 38.09375 -229.625 Z M 41.65625 -229.625 "/></g></g></g><g fill="#191b20" fill-opacity="1"><g transform="translate(693.388935, 276.176473)"><g><path d="M 121.75 -37.03125 C 117.71875 -24.207031 110.300781 -14.234375 99.5 -7.109375 C 88.707031 0.00390625 75.710938 3.5625 60.515625 3.5625 C 52.453125 3.5625 44.914062 2.492188 37.90625 0.359375 C 30.90625 -1.773438 24.851562 -4.738281 19.75 -8.53125 C 14.65625 -12.332031 10.679688 -16.90625 7.828125 -22.25 C 4.984375 -27.59375 3.5625 -33.347656 3.5625 -39.515625 C 3.5625 -49.015625 6.46875 -56.847656 12.28125 -63.015625 C 18.09375 -69.179688 25.390625 -74.34375 34.171875 -78.5 C 42.953125 -82.65625 52.445312 -86.210938 62.65625 -89.171875 C 72.863281 -92.140625 82.359375 -95.109375 91.140625 -98.078125 C 99.921875 -101.046875 107.21875 -104.488281 113.03125 -108.40625 C 118.84375 -112.320312 121.75 -117.363281 121.75 -123.53125 L 121.75 -125.3125 C 121.75 -141.6875 117.710938 -154.5625 109.640625 -163.9375 C 101.578125 -173.320312 90.664062 -178.015625 76.90625 -178.015625 C 71.914062 -178.015625 66.925781 -177.003906 61.9375 -174.984375 C 56.957031 -172.960938 52.507812 -170.347656 48.59375 -167.140625 C 44.675781 -163.941406 41.53125 -160.207031 39.15625 -155.9375 C 36.789062 -151.664062 35.609375 -147.394531 35.609375 -143.125 C 35.609375 -139.5625 36.554688 -135.703125 38.453125 -131.546875 C 40.347656 -127.390625 43.429688 -122.820312 47.703125 -117.84375 L 46.28125 -116.421875 L 18.515625 -148.453125 C 27.765625 -159.847656 37.078125 -168.210938 46.453125 -173.546875 C 55.828125 -178.890625 66.210938 -181.5625 77.609375 -181.5625 C 96.117188 -181.5625 110.890625 -176.160156 121.921875 -165.359375 C 132.960938 -154.566406 138.484375 -139.796875 138.484375 -121.046875 L 138.484375 -32.390625 C 138.484375 -20.285156 139.96875 -12.15625 142.9375 -8 C 145.90625 -3.851562 151.539062 -1.78125 159.84375 -1.78125 L 159.84375 0 L 132.4375 0 C 125.3125 0 121.75 -3.5625 121.75 -10.6875 Z M 22.078125 -40.578125 C 22.078125 -34.890625 23.144531 -29.671875 25.28125 -24.921875 C 27.414062 -20.171875 30.441406 -16.015625 34.359375 -12.453125 C 38.273438 -8.898438 42.84375 -6.171875 48.0625 -4.265625 C 53.28125 -2.367188 59.09375 -1.421875 65.5 -1.421875 C 74.050781 -1.421875 81.765625 -2.84375 88.640625 -5.6875 C 95.523438 -8.539062 101.398438 -12.519531 106.265625 -17.625 C 111.128906 -22.726562 114.925781 -28.898438 117.65625 -36.140625 C 120.382812 -43.378906 121.75 -51.269531 121.75 -59.8125 L 121.75 -112.5 C 118.664062 -108.226562 114.097656 -104.609375 108.046875 -101.640625 C 101.992188 -98.671875 95.289062 -95.878906 87.9375 -93.265625 C 80.582031 -90.660156 72.988281 -87.992188 65.15625 -85.265625 C 57.320312 -82.535156 50.195312 -79.210938 43.78125 -75.296875 C 37.375 -71.378906 32.15625 -66.628906 28.125 -61.046875 C 24.09375 -55.472656 22.078125 -48.648438 22.078125 -40.578125 Z M 22.078125 -40.578125 "/></g></g></g><g fill="#191b20" fill-opacity="1"><g transform="translate(856.797191, 276.176473)"><g><path d="M 41.65625 -32.390625 C 41.65625 -20.285156 43.132812 -12.15625 46.09375 -8 C 49.0625 -3.851562 54.703125 -1.78125 63.015625 -1.78125 L 63.015625 0 L 3.5625 0 L 3.5625 -1.78125 C 11.863281 -1.78125 17.5 -3.851562 20.46875 -8 C 23.4375 -12.15625 24.921875 -20.285156 24.921875 -32.390625 L 24.921875 -234.609375 C 24.921875 -246.710938 23.4375 -254.84375 20.46875 -259 C 17.5 -263.15625 11.863281 -265.234375 3.5625 -265.234375 L 3.5625 -267.015625 L 30.96875 -267.015625 C 38.09375 -267.015625 41.65625 -263.453125 41.65625 -256.328125 Z M 41.65625 -32.390625 "/></g></g></g><g fill="#191b20" fill-opacity="1"><g transform="translate(908.418556, 276.176473)"><g><path d="M 93.625 0 L 90.078125 0 C 82.953125 0 78.320312 -3.320312 76.1875 -9.96875 L 34.53125 -145.609375 C 32.632812 -151.773438 30.734375 -156.816406 28.828125 -160.734375 C 26.929688 -164.648438 24.796875 -167.734375 22.421875 -169.984375 C 20.054688 -172.242188 17.390625 -173.847656 14.421875 -174.796875 C 11.453125 -175.753906 7.832031 -176.234375 3.5625 -176.234375 L 3.5625 -178.015625 L 63.734375 -178.015625 L 63.734375 -176.234375 C 55.421875 -176.234375 50.429688 -174.15625 48.765625 -170 C 47.109375 -165.84375 48.179688 -157.710938 51.984375 -145.609375 L 86.875 -32.390625 C 88.53125 -27.171875 90.128906 -22.78125 91.671875 -19.21875 C 93.210938 -15.664062 94.9375 -12.582031 96.84375 -9.96875 L 138.84375 -145.609375 C 142.644531 -157.710938 143.710938 -165.84375 142.046875 -170 C 140.390625 -174.15625 135.40625 -176.234375 127.09375 -176.234375 L 127.09375 -178.015625 L 173.375 -178.015625 L 173.375 -176.234375 C 169.101562 -176.234375 165.484375 -175.753906 162.515625 -174.796875 C 159.554688 -173.847656 156.890625 -172.242188 154.515625 -169.984375 C 152.140625 -167.734375 150 -164.648438 148.09375 -160.734375 C 146.195312 -156.816406 144.300781 -151.773438 142.40625 -145.609375 L 93.28125 12.8125 C 81.882812 49.125 61.945312 74.519531 33.46875 89 L 25.984375 72.625 C 43.078125 67.875 56.722656 60.691406 66.921875 51.078125 C 77.128906 41.472656 84.726562 28.71875 89.71875 12.8125 Z M 93.625 0 "/></g></g></g><g fill="#191b20" fill-opacity="1"><g transform="translate(1071.114898, 276.176473)"><g><path d="M 64.4375 0 C 69.425781 0 74.171875 -1.003906 78.671875 -3.015625 C 83.179688 -5.035156 87.15625 -7.765625 90.59375 -11.203125 C 94.039062 -14.648438 96.773438 -18.628906 98.796875 -23.140625 C 100.816406 -27.648438 101.828125 -32.515625 101.828125 -37.734375 C 101.828125 -45.566406 99.570312 -52.507812 95.0625 -58.5625 C 90.550781 -64.613281 84.910156 -70.191406 78.140625 -75.296875 C 71.378906 -80.398438 64.019531 -85.382812 56.0625 -90.25 C 48.113281 -95.113281 40.757812 -100.15625 34 -105.375 C 27.238281 -110.601562 21.601562 -116.300781 17.09375 -122.46875 C 12.582031 -128.632812 10.328125 -135.753906 10.328125 -143.828125 C 10.328125 -149.046875 11.628906 -153.910156 14.234375 -158.421875 C 16.847656 -162.929688 20.347656 -166.90625 24.734375 -170.34375 C 29.128906 -173.789062 34.351562 -176.519531 40.40625 -178.53125 C 46.457031 -180.550781 52.804688 -181.5625 59.453125 -181.5625 C 71.796875 -181.5625 82.832031 -178.359375 92.5625 -171.953125 C 102.289062 -165.546875 109.648438 -156.882812 114.640625 -145.96875 L 86.875 -113.921875 L 85.4375 -115.34375 C 90.1875 -120.800781 93.628906 -126.082031 95.765625 -131.1875 C 97.898438 -136.289062 98.96875 -141.097656 98.96875 -145.609375 C 98.96875 -150.117188 97.957031 -154.332031 95.9375 -158.25 C 93.925781 -162.164062 91.257812 -165.609375 87.9375 -168.578125 C 84.613281 -171.546875 80.632812 -173.859375 76 -175.515625 C 71.375 -177.179688 66.332031 -178.015625 60.875 -178.015625 C 50.90625 -178.015625 43.015625 -175.34375 37.203125 -170 C 31.390625 -164.65625 28.484375 -157.238281 28.484375 -147.75 C 28.484375 -140.863281 30.738281 -134.628906 35.25 -129.046875 C 39.757812 -123.472656 45.453125 -118.132812 52.328125 -113.03125 C 59.210938 -107.925781 66.570312 -103 74.40625 -98.25 C 82.238281 -93.507812 89.597656 -88.347656 96.484375 -82.765625 C 103.367188 -77.191406 109.0625 -71.019531 113.5625 -64.25 C 118.070312 -57.488281 120.328125 -49.835938 120.328125 -41.296875 C 120.328125 -34.890625 118.898438 -28.957031 116.046875 -23.5 C 113.203125 -18.039062 109.289062 -13.289062 104.3125 -9.25 C 99.332031 -5.21875 93.398438 -2.078125 86.515625 0.171875 C 79.628906 2.429688 72.269531 3.5625 64.4375 3.5625 C 50.90625 3.5625 38.914062 -0.113281 28.46875 -7.46875 C 18.03125 -14.832031 9.726562 -25.394531 3.5625 -39.15625 L 31.328125 -71.203125 L 32.75 -69.78125 C 28.71875 -65.03125 25.632812 -59.863281 23.5 -54.28125 C 21.363281 -48.707031 20.296875 -43.191406 20.296875 -37.734375 C 20.296875 -26.347656 24.390625 -17.210938 32.578125 -10.328125 C 40.765625 -3.441406 51.382812 0 64.4375 0 Z M 64.4375 0 "/></g></g></g><g fill="#191b20" fill-opacity="1"><g transform="translate(1195.006064, 276.176473)"><g><path d="M 41.65625 -229.625 L 41.65625 -181.5625 L 89.71875 -181.5625 L 89.71875 -178.015625 L 41.65625 -178.015625 L 41.65625 -44.5 C 41.65625 -31.925781 44.382812 -21.484375 49.84375 -13.171875 C 55.300781 -4.867188 62.179688 -0.71875 70.484375 -0.71875 C 75.472656 -0.71875 80.578125 -2.378906 85.796875 -5.703125 C 91.015625 -9.023438 96 -14.363281 100.75 -21.71875 L 103.953125 -19.9375 C 93.515625 -4.03125 81.410156 3.921875 67.640625 3.921875 C 54.109375 3.921875 43.601562 -0.765625 36.125 -10.140625 C 28.65625 -19.515625 24.921875 -32.507812 24.921875 -49.125 L 24.921875 -178.015625 L 3.5625 -178.015625 L 3.5625 -181.5625 C 9.019531 -181.5625 13.820312 -182.035156 17.96875 -182.984375 C 22.125 -183.941406 25.6875 -186.140625 28.65625 -189.578125 C 31.625 -193.015625 33.878906 -197.878906 35.421875 -204.171875 C 36.960938 -210.460938 37.851562 -218.945312 38.09375 -229.625 Z M 41.65625 -229.625 "/></g></g></g></svg>